<?xml version="1.0" encoding="UTF-8" standalone="no"?>
<!-- Created with Inkscape (http://www.inkscape.org/) -->

<svg
   width="270"
   height="250"
   viewBox="0 0 71.437499 66.145833"
   version="1.1"
   id="svg1"
   xml:space="preserve"
   sodipodi:docname="mercaopagoinfo.svg"
   inkscape:export-filename="mercaopagoinfo.png"
   inkscape:export-xdpi="100.66631"
   inkscape:export-ydpi="100.66631"
   inkscape:version="1.4 (86a8ad7, 2024-10-11)"
   xmlns:inkscape="http://www.inkscape.org/namespaces/inkscape"
   xmlns:sodipodi="http://sodipodi.sourceforge.net/DTD/sodipodi-0.dtd"
   xmlns="http://www.w3.org/2000/svg"
   xmlns:svg="http://www.w3.org/2000/svg"><sodipodi:namedview
     id="namedview1"
     pagecolor="#ffffff"
     bordercolor="#000000"
     borderopacity="0.25"
     inkscape:showpageshadow="2"
     inkscape:pageopacity="0.0"
     inkscape:pagecheckerboard="0"
     inkscape:deskcolor="#d1d1d1"
     inkscape:zoom="2.988"
     inkscape:cx="135.04016"
     inkscape:cy="125"
     inkscape:window-width="1920"
     inkscape:window-height="986"
     inkscape:window-x="-32000"
     inkscape:window-y="-32000"
     inkscape:window-maximized="0"
     inkscape:current-layer="svg1" /><defs
     id="defs1"><style
       id="style1">.a{fill:none;stroke:#000000;stroke-linecap:round;stroke-linejoin:round;}</style></defs><g
     id="layer1"><g
       id="g1"
       transform="matrix(0.73313638,0,0,0.73313638,17.901472,3.858981)"
       style="fill:none;fill-opacity:1;stroke:#0bb2ff;stroke-width:0.863414;stroke-dasharray:none;stroke-opacity:1"><ellipse
         class="a"
         cx="24"
         cy="24"
         rx="19.5"
         ry="12.978"
         id="ellipse1"
         style="fill:none;fill-opacity:1;stroke:#0bb2ff;stroke-width:0.863414;stroke-dasharray:none;stroke-opacity:1" /><path
         class="a"
         d="m 9.7044,15.5305 a 20.8345,20.8345 0 0 0 6.3856,1.8652 22.8207,22.8207 0 0 0 4.546,-0.7731"
         id="path1"
         style="fill:none;fill-opacity:1;stroke:#0bb2ff;stroke-width:0.863414;stroke-dasharray:none;stroke-opacity:1" /><path
         class="a"
         d="m 38.8824,15.6143 a 8.6157,8.6157 0 0 1 -5.1653,1.4849 c -3.3351,0 -6.2255,-2.1987 -9.2148,-2.1987 -2.6681,0 -7.189,4.3727 -7.189,5.1633 0,0.7906 1.3094,1.26 2.3717,0.7411 0.6215,-0.3036 3.31,-2.9151 5.4843,-2.9151 2.1743,0 9.2186,7.1361 9.8571,7.8066 0.9882,1.0376 -0.9264,3.2733 -2.1493,2.05 -1.2229,-1.2233 -3.4092,-3.1621 -3.4092,-3.1621"
         id="path2"
         style="fill:none;fill-opacity:1;stroke:#0bb2ff;stroke-width:0.863414;stroke-dasharray:none;stroke-opacity:1" /><path
         class="a"
         d="m 43.4,22.6826 a 23.9981,23.9981 0 0 0 -8.5467,2.6926"
         id="path3"
         style="fill:none;fill-opacity:1;stroke:#0bb2ff;stroke-width:0.863414;stroke-dasharray:none;stroke-opacity:1" /><path
         class="a"
         d="m 32.5807,27.4555 c 0.9881,1.0376 -0.9265,3.2733 -2.1493,2.05 C 29.2086,28.2822 27.85,26.9933 27.85,26.9933"
         id="path4"
         style="fill:none;fill-opacity:1;stroke:#0bb2ff;stroke-width:0.863414;stroke-dasharray:none;stroke-opacity:1" /><path
         class="a"
         d="m 30.1349,29.2147 c 0.9882,1.0376 -0.9264,3.2733 -2.1493,2.05 C 26.7627,30.0414 25.96,29.3032 25.96,29.3032"
         id="path5"
         style="fill:none;fill-opacity:1;stroke:#0bb2ff;stroke-width:0.863414;stroke-dasharray:none;stroke-opacity:1" /><path
         class="a"
         d="M 24.2015,31.3156 A 2.309,2.309 0 0 0 27.85,31.13"
         id="path6"
         style="fill:none;fill-opacity:1;stroke:#0bb2ff;stroke-width:0.863414;stroke-dasharray:none;stroke-opacity:1" /><path
         class="a"
         d="m 24.2015,31.3156 c 0.5306,-0.6964 0.49,-3.1817 -2.2437,-2.6876 0.6423,-1.2188 0.0658,-3.1457 -2.3881,-2.0093 A 1.69,1.69 0 0 0 16.424,25.96 a 1.4545,1.4545 0 0 0 -2.8,-0.28 c -0.5435,1.1035 0.2964,3.0963 2.0916,1.9763 -0.1812,1.9435 0.84,2.5364 2.6845,1.7788 0.0989,1.91 1.367,1.7457 2.2728,1.3011 a 1.9376,1.9376 0 0 0 3.5286,0.5794 z"
         id="path7"
         style="fill:none;fill-opacity:1;stroke:#0bb2ff;stroke-width:0.863414;stroke-dasharray:none;stroke-opacity:1" /><path
         class="a"
         d="m 4.6706,22.2785 a 18.3081,18.3081 0 0 1 9.0635,3.2144"
         id="path8"
         style="fill:none;fill-opacity:1;stroke:#0bb2ff;stroke-width:0.863414;stroke-dasharray:none;stroke-opacity:1" /></g><text
       xml:space="preserve"
       style="font-size:3.175px;text-align:start;writing-mode:lr-tb;direction:ltr;text-anchor:start;white-space:pre;inline-size:71.6246;fill:none;fill-opacity:1;stroke:#fff9ff;stroke-width:0.333;stroke-dasharray:none;stroke-opacity:0.64807695"
       x="3.379518"
       y="39.759033"
       id="text1"
       transform="translate(4.9698795,13.518072)"><tspan
         x="3.379518"
         y="39.759033"
         id="tspan5"><tspan
           style="font-size:3.88056px;-inkscape-font-specification:'sans-serif, Normal'"
           id="tspan1">CVU: 000045675840943943</tspan></tspan></text><text
       xml:space="preserve"
       style="font-style:normal;font-variant:normal;font-weight:normal;font-stretch:normal;font-size:3.88056px;font-family:sans-serif;-inkscape-font-specification:'sans-serif, Normal';font-variant-ligatures:normal;font-variant-caps:normal;font-variant-numeric:normal;font-variant-east-asian:normal;text-align:start;writing-mode:lr-tb;direction:ltr;text-anchor:start;fill:none;fill-opacity:1;stroke:#fff9ff;stroke-width:0.332999;stroke-dasharray:none;stroke-opacity:0.64807695"
       x="12.524097"
       y="46.915668"
       id="text2"><tspan
         id="tspan2"
         style="stroke-width:0.333;stroke:#fff9ff;stroke-opacity:0.64807695"
         x="12.524097"
         y="46.915668">ALIAS: trainingpoint123</tspan></text></g></svg>
